<svg xmlns="http://www.w3.org/2000/svg" version="1.1" x="0" y="0" width="100" height="100" viewBox="0 0 1000 1000" enable-background="new 0 0 1000 1000" xml:space="preserve">
  <style>
    .accent {
      fill: #ffba3b;
    }

    .fg {
      fill: #eee;
    }

    .edge {
      stroke: #eee;
    }
  </style>
  <line class="accent" x1="500" y1="71" x2="500" y2="931"/>
  <path class="accent" d="M445 70.6c0 18.5 0 37 0 55.5 0 47 0 93.9 0 140.9 0 62.7 0 125.4 0 188 0 65.6 0 131.2 0 196.9 0 55.8 0 111.6 0 167.4 0 33.2 0 66.4 0 99.5 0 4.2 0 8.3 0 12.5 0 30 25 55 55 55 30 0 55-25 55-55 0-18.5 0-37 0-55.5 0-47 0-93.9 0-140.9 0-62.7 0-125.4 0-188 0-65.6 0-131.2 0-196.9 0-55.8 0-111.6 0-167.4 0-33.2 0-66.4 0-99.5 0-4.2 0-8.3 0-12.5 0-30-25-55-55-55C470.1 15.6 445 40.7 445 70.6L445 70.6z"/>
  <line class="accent" x1="501" y1="500" x2="930.6" y2="70.4"/>
  <path class="accent" d="M539.9 538.9c17.6-17.6 35.3-35.3 52.9-52.9 40.8-40.8 81.7-81.7 122.5-122.5 45.9-45.9 91.8-91.8 137.7-137.7 32.9-32.9 65.7-65.7 98.6-98.6 5.9-5.9 11.9-11.9 17.8-17.8 21.2-21.2 21.2-56.6 0-77.8 -21.2-21.2-56.6-21.2-77.8 0 -17.6 17.6-35.3 35.3-52.9 52.9 -40.8 40.8-81.7 81.7-122.5 122.5 -45.9 45.9-91.8 91.8-137.7 137.7 -32.9 32.9-65.7 65.7-98.6 98.6 -5.9 5.9-11.9 11.9-17.8 17.8 -21.2 21.2-21.2 56.6 0 77.8C483.3 560.1 518.7 560.1 539.9 538.9L539.9 538.9z"/>
  <line class="accent" x1="501" y1="500" x2="931.6" y2="930.6"/>
  <path class="accent" d="M462.1 538.9c17.6 17.6 35.2 35.2 52.8 52.8 40.8 40.8 81.6 81.6 122.4 122.4 45.9 45.9 91.9 91.9 137.8 137.8 33 33 66.1 66.1 99.1 99.1 6.1 6.1 12.3 12.3 18.4 18.4 21.2 21.2 56.6 21.2 77.8 0 21.2-21.2 21.2-56.6 0-77.8 -17.6-17.6-35.2-35.2-52.8-52.8 -40.8-40.8-81.6-81.6-122.4-122.4 -45.9-45.9-91.9-91.9-137.8-137.8 -33-33-66.1-66.1-99.1-99.1 -6.1-6.1-12.3-12.3-18.4-18.4 -21.2-21.2-56.6-21.2-77.8 0C440.9 482.3 440.9 517.7 462.1 538.9L462.1 538.9z"/>
  <line class="fg" x1="501" y1="500" x2="70.6" y2="69.7"/>
  <path class="fg" d="M539.9 461.1c-17.6-17.6-35.3-35.3-52.9-52.9 -40.8-40.8-81.7-81.7-122.5-122.5 -46-46-91.9-91.9-137.9-137.9 -33-33-65.9-65.9-98.9-98.9 -6-6-12.1-12.1-18.1-18.1C88.3 9.6 52.9 9.6 31.8 30.8c-21.2 21.2-21.2 56.6 0 77.8 17.6 17.6 35.3 35.3 52.9 52.9 40.8 40.8 81.7 81.7 122.5 122.5 46 46 91.9 91.9 137.9 137.9 33 33 65.9 65.9 98.9 98.9 6 6 12.1 12.1 18.1 18.1 21.2 21.2 56.6 21.2 77.8 0C561.1 517.7 561.1 482.3 539.9 461.1L539.9 461.1z"/>
  <line class="fg" x1="501" y1="500" x2="69.9" y2="931.1"/>
  <path class="fg" d="M462.1 461.1c-17.6 17.6-35.2 35.2-52.8 52.8 -40.8 40.8-81.6 81.6-122.3 122.3 -46 46-91.9 91.9-137.9 137.9 -33.1 33.1-66.2 66.2-99.4 99.4 -6.2 6.2-12.5 12.5-18.7 18.7 -21.2 21.2-21.2 56.6 0 77.8 21.2 21.2 56.6 21.2 77.8 0 17.6-17.6 35.2-35.2 52.8-52.8 40.8-40.8 81.6-81.6 122.3-122.3 46-46 91.9-91.9 137.9-137.9 33.1-33.1 66.2-66.2 99.4-99.4 6.2-6.2 12.5-12.5 18.7-18.7 21.2-21.2 21.2-56.6 0-77.8C518.7 439.9 483.3 439.9 462.1 461.1L462.1 461.1z"/>
  <line class="fg" x1="501" y1="500" x2="71" y2="500"/>
  <path class="fg" d="M501 445c-32.7 0-65.5 0-98.2 0 -64.1 0-128.3 0-192.4 0 -44.5 0-89 0-133.5 0 -2.1 0-4.2 0-6.2 0 -30 0-55 25-55 55 0 30 25 55 55 55 32.7 0 65.5 0 98.2 0 64.2 0 128.3 0 192.5 0 44.5 0 89 0 133.5 0 2.1 0 4.2 0 6.2 0 30 0 55-25 55-55C556 470 531 445 501 445L501 445z"/>
  <line class="edge" stroke-width="110" stroke-miterlimit="10" x1="462" y1="461" x2="540" y2="539"/>
</svg>